<svg width="54" height="59" viewBox="0 0 54 59" fill="none" xmlns="http://www.w3.org/2000/svg">
<path d="M26.8032 0.968994C12.0573 0.968994 0.103516 13.9357 0.103516 29.9312C0.103516 45.9266 12.0573 58.8933 26.8032 58.8933C41.5491 58.8933 53.503 45.9266 53.503 29.9312C53.503 13.9357 41.5491 0.968994 26.8032 0.968994ZM36.9893 15.7182L33.2964 15.72C30.4005 15.72 29.8406 17.2127 29.8406 19.4029V24.2323H36.7462L36.7429 31.7966H29.8411V51.2082H22.6384V31.7966H16.6172V24.2323H22.6384V18.6538C22.6384 12.1799 26.2848 8.65411 31.6084 8.65411L36.9898 8.663V15.7182H36.9893Z" fill="#529E37"/>
</svg>
