<svg width="60" height="66" viewBox="0 0 60 66" fill="none" xmlns="http://www.w3.org/2000/svg">
<path d="M35.9694 32.817C35.9694 36.232 33.4497 39.0002 30.3414 39.0002C27.2331 39.0002 24.7134 36.232 24.7134 32.817C24.7134 29.402 27.2331 26.6338 30.3414 26.6338C33.4497 26.6338 35.9694 29.402 35.9694 32.817Z" fill="#529E37"/>
<path d="M43.5035 21.8772C43.233 21.0718 42.8014 20.3427 42.2406 19.7443C41.6959 19.1282 41.0328 18.654 40.2992 18.3568C39.7043 18.1029 38.8105 17.8007 37.1644 17.7184C35.3837 17.6292 34.8498 17.61 30.3416 17.61C25.833 17.61 25.2991 17.6287 23.5188 17.7179C21.8727 17.8007 20.9785 18.1029 20.384 18.3568C19.6505 18.654 18.9869 19.1282 18.4427 19.7443C17.8818 20.3427 17.4502 21.0713 17.1792 21.8772C16.9482 22.5308 16.6731 23.5132 16.5982 25.3217C16.517 27.2776 16.4995 27.8642 16.4995 32.8176C16.4995 37.7704 16.517 38.357 16.5982 40.3134C16.6731 42.1219 16.9482 43.1038 17.1792 43.7574C17.4502 44.5634 17.8814 45.2919 18.4422 45.8903C18.9869 46.5065 19.65 46.9807 20.3836 47.2779C20.9785 47.5322 21.8727 47.8344 23.5188 47.9167C25.2991 48.0059 25.8326 48.0247 30.3412 48.0247C34.8502 48.0247 35.3841 48.0059 37.164 47.9167C38.8101 47.8344 39.7043 47.5322 40.2992 47.2779C41.7717 46.6538 42.9355 45.3752 43.5035 43.7574C43.7346 43.1038 44.0096 42.1219 44.085 40.3134C44.1662 38.357 44.1833 37.7704 44.1833 32.8176C44.1833 27.8642 44.1662 27.2776 44.085 25.3217C44.0101 23.5132 43.735 22.5308 43.5035 21.8772ZM30.3416 42.3423C25.553 42.3423 21.6712 38.078 21.6712 32.8171C21.6712 27.5561 25.553 23.2919 30.3416 23.2919C35.1297 23.2919 39.0115 27.5561 39.0115 32.8171C39.0115 38.078 35.1297 42.3423 30.3416 42.3423ZM39.3543 25.1413C38.2354 25.1413 37.3282 24.1446 37.3282 22.9153C37.3282 21.6859 38.2354 20.6893 39.3543 20.6893C40.4733 20.6893 41.3805 21.6859 41.3805 22.9153C41.38 24.1446 40.4733 25.1413 39.3543 25.1413Z" fill="#529E37"/>
<path d="M30.3415 0.513062C14.1049 0.513062 0.937988 14.9788 0.937988 32.817C0.937988 50.6553 14.1049 65.121 30.3415 65.121C46.5781 65.121 59.745 50.6553 59.745 32.817C59.745 14.9788 46.5781 0.513062 30.3415 0.513062ZM47.1237 40.4647C47.042 42.4393 46.7562 43.7874 46.339 44.9675C45.4618 47.4592 43.669 49.4289 41.401 50.3925C40.3273 50.851 39.0998 51.1645 37.3029 51.2547C35.5024 51.3449 34.9272 51.3666 30.3419 51.3666C25.7562 51.3666 25.1814 51.3449 23.3805 51.2547C21.5836 51.1645 20.3561 50.851 19.2824 50.3925C18.1554 49.9267 17.1351 49.1967 16.2916 48.2528C15.4329 47.3266 14.7684 46.2052 14.3444 44.9675C13.9272 43.7879 13.6414 42.4393 13.5597 40.4652C13.4767 38.4866 13.4574 37.8547 13.4574 32.817C13.4574 27.7794 13.4767 27.1475 13.5593 25.1694C13.6409 23.1947 13.9263 21.8466 14.3435 20.6666C14.7675 19.4288 15.4325 18.3074 16.2916 17.3813C17.1347 16.4373 18.1554 15.7073 19.282 15.2415C20.3561 14.7831 21.5832 14.4696 23.3805 14.3794C25.181 14.2892 25.7562 14.2675 30.3415 14.2675C34.9268 14.2675 35.502 14.2892 37.3025 14.3799C39.0998 14.4696 40.3269 14.7831 41.401 15.241C42.5276 15.7068 43.5483 16.4373 44.3918 17.3813C45.2505 18.3079 45.9154 19.4288 46.339 20.6666C46.7567 21.8466 47.042 23.1947 47.1241 25.1694C47.2062 27.1475 47.2255 27.7794 47.2255 32.817C47.2255 37.8547 47.2062 38.4866 47.1237 40.4647Z" fill="#529E37"/>
</svg>
