<svg width="49" height="54" viewBox="0 0 49 54" fill="none" xmlns="http://www.w3.org/2000/svg">
<path d="M39.9629 52.7498C29.5541 53.9703 19.1137 53.9703 8.7049 52.7498C4.55444 52.2631 1.27618 48.6615 0.833211 44.1012C-0.277737 32.6656 -0.277737 21.1957 0.833211 9.76012C1.27618 5.20024 4.55444 1.5986 8.7049 1.11194C19.1137 -0.108601 29.5537 -0.108601 39.9626 1.11194C44.1134 1.5986 47.3917 5.20024 47.8346 9.76012C48.9456 21.1957 48.9456 32.6656 47.8346 44.1012C47.3917 48.6615 44.1138 52.2631 39.9629 52.7498Z" fill="#529E37"/>
<path d="M45.1875 11.6942C44.7947 7.64792 41.8859 4.45176 38.2025 4.01976C28.9659 2.9371 19.7018 2.9371 10.4652 4.01976C6.7822 4.45176 3.87302 7.64792 3.47981 11.6942C2.49436 21.842 2.49436 32.0199 3.47981 42.1673C3.87302 46.214 6.7822 49.4102 10.4652 49.8418C19.7018 50.9248 28.9659 50.9248 38.2021 49.8418C41.8855 49.4102 44.7947 46.214 45.1875 42.1673C46.1733 32.0199 46.1733 21.842 45.1875 11.6942Z" fill="#529E37"/>
<path d="M0.729492 42.9929C0.76291 43.3625 0.797441 43.7321 0.833458 44.1017C1.27643 48.6615 4.55469 52.2631 8.70552 52.7498C19.1143 53.9703 29.5544 53.9703 39.9632 52.7498C44.114 52.2631 47.3919 48.6615 47.8349 44.1017C47.8709 43.7321 47.9054 43.3625 47.9392 42.9929H0.729492Z" fill="#529E37"/>
<path d="M47.3099 46.5189L15.9033 12.0139C15.2019 11.0084 14.0984 10.3594 12.8564 10.3594C10.7377 10.3594 9.02002 12.2461 9.02002 14.5737C9.02002 15.9387 9.61114 17.151 10.5264 17.9212L41.8238 52.3063C44.3535 51.3815 46.3697 49.246 47.3099 46.5189Z" fill="#529E37"/>
<path d="M16.0786 21.553H9.63379V43.5022L18.7783 53.5488C25.8413 53.8425 32.9091 53.5769 39.9625 52.7496C41.1956 52.6052 42.3507 52.1838 43.3785 51.5458L16.0786 21.553Z" fill="#529E37"/>
<path d="M37.9656 23.3916C36.7867 21.9716 35.0894 21.0807 33.2028 21.0807C30.2186 21.0807 28.2927 22.2323 27.1464 23.3015L25.8836 21.5531H19.9453V43.5022L29.1173 53.579C32.7346 53.4497 36.3504 53.1731 39.9628 52.7497C44.1137 52.263 47.3915 48.6614 47.8345 44.1015C48.1308 41.0526 48.3473 38.0013 48.4854 34.9491L37.9656 23.3916Z" fill="#529E37"/>
<path d="M9.63428 21.553H16.0786V43.5023H9.63428V21.553Z" fill="white"/>
<path d="M33.2028 21.0807C28.4802 21.0807 26.4057 23.9644 25.8836 24.8422V21.5531H19.9453V43.5023H26.3901V32.4771C26.3901 29.2912 27.7249 26.813 30.2569 26.813C32.7884 26.813 33.2028 29.8978 33.2028 33.6911V43.5023H39.6476V28.1612C39.6476 24.2507 36.7622 21.0807 33.2028 21.0807Z" fill="white"/>
<path d="M16.6923 14.5741C16.6923 16.9018 14.975 18.7885 12.8564 18.7885C10.7377 18.7885 9.02002 16.9018 9.02002 14.5741C9.02002 12.2465 10.7377 10.3594 12.8564 10.3594C14.975 10.3594 16.6923 12.2465 16.6923 14.5741Z" fill="white"/>
</svg>
