<svg width="1440" height="409" viewBox="0 0 1440 409" fill="none" xmlns="http://www.w3.org/2000/svg">
<path d="M1533.07 1281.28L1507.08 84.2747C1496.66 82.3419 1479.38 81.466 1480.28 75.1659C1480.78 87.6745 1444.28 65.6419 1444.72 76.5869C1444.75 77.3687 1408.68 66.2812 1409.06 75.6626C1409.49 86.6077 1374.33 98.192 1374.27 96.6284C1374.24 95.8466 1338.17 84.7591 1338.3 87.8862C1337.92 78.5048 1303.19 72.0621 1303.66 83.789C1303.72 85.3525 1273.42 74.8176 1273.33 72.4722C1273.3 71.6904 1235.07 92.7937 1235.75 81.0211C1236 87.2754 1206.99 51.6315 1206.32 63.4042C1205.94 54.0227 1171.22 76.5521 1171.09 73.4249C1171.28 78.1157 1127.09 65.0036 1127.06 64.2219C1126.93 61.0947 1093.45 85.9236 1093.48 86.7054C1093.54 88.2689 1048.83 90.8385 1048.61 85.366C1048.3 77.5481 1014.88 103.941 1014.94 105.504C1015.22 112.54 974.661 103.981 974.599 102.418C974.443 98.5089 938.01 107.012 938.072 108.576C937.854 103.103 899.407 118.734 899.47 120.297C899.407 118.734 860.492 122.638 860.399 120.292C859.93 108.566 823.31 112.378 823.279 111.596C823.372 113.941 785.511 115.454 786.315 106.809C786.409 109.154 747.119 103.677 747.244 106.804C747.494 113.058 714.619 95.5786 714.338 88.5425C714.276 86.979 676.383 87.7099 676.321 86.1463C676.571 92.4006 636.719 72.851 637.25 86.1414C637.406 90.0503 598.116 84.5728 598.21 86.9182C598.272 88.4818 559.607 98.64 560.317 87.6492C560.505 92.3399 525.179 71.0433 525.273 73.3887C525.242 72.6069 486.756 58.4838 487.162 68.6471C487.193 69.4289 449.863 84.232 449.894 85.0138C450.207 92.8317 409.176 72.5461 409.207 73.3279C409.489 80.3639 377.208 77.7386 377.426 83.2111C377.582 87.12 343.873 77.5044 344.186 85.3223C343.998 80.6315 312.833 77.1785 312.927 79.5239C313.208 86.56 276.088 77.8636 276.369 84.8997C276.463 87.2451 246.968 68.0647 246.999 68.8464C246.843 64.9375 208.303 78.2229 208.116 73.5322C208.459 82.1318 172.393 71.0443 171.651 81.2534C171.401 74.9991 133.978 87.4569 133.946 86.6751C133.478 74.9483 94.1568 68.689 94.8753 86.6701C94.969 89.0155 59.6522 96.6908 59.5273 93.5637C60.0583 106.854 23.8897 64.4492 24.6081 82.4303C24.6081 82.4303 -8.29752 64.1692 -8.1101 68.8599C-8.29752 64.1692 -56.2347 72.3488 -56.2347 72.3488C-56.6408 62.1856 -84.2075 62.504 -89.8816 64.2967L-63.2782 1334.1L1533.07 1281.28Z" fill="#F7E2C9"/>
</svg>
