<svg width="277" height="66" viewBox="0 0 277 66" fill="none" xmlns="http://www.w3.org/2000/svg">
<path d="M78.6414 4.16692C80.3839 3.03049 82.1265 2.27285 83.7932 1.74252C85.46 1.21218 87.1268 0.984894 88.7178 0.984894C90.8391 0.984894 92.8847 1.36371 94.8546 2.1971C96.7486 3.03048 98.4911 4.16692 99.9306 5.68217C101.37 7.19742 102.582 8.93995 103.567 10.9098C104.552 12.9554 105.082 15.1525 105.31 17.6526C106.067 26.4411 103.264 33.9416 96.9001 40.1541C95.2334 41.8208 93.3393 43.1088 91.2179 44.0937C89.1724 45.0786 87.4298 45.609 85.9903 45.7605C85.5358 45.7605 85.3085 45.9878 85.3085 46.3666C85.2327 47.8061 85.157 49.0183 85.0812 49.8516C85.0054 50.7608 85.0054 51.4427 85.0054 51.973C85.0054 52.5033 85.0054 52.8822 85.0812 53.1094C85.157 53.3367 85.2327 53.6398 85.3843 53.8671C85.9146 55.0035 85.9146 55.9126 85.3843 56.6703C84.7782 57.4279 84.0205 57.8067 83.1114 57.8067C82.5053 57.8067 81.8992 57.5794 81.2931 57.2006C80.687 56.8218 80.1567 56.1399 79.7778 55.3065C79.5506 54.7762 79.3233 54.0943 79.1717 53.261C79.0202 52.4276 78.9444 51.5942 78.8687 50.685C78.7929 49.7759 78.7929 48.9425 78.7929 48.1091C78.7929 47.2757 78.7929 46.5181 78.8687 45.912C78.9444 43.4876 79.0202 41.442 79.096 39.7753C79.1717 38.1085 79.1717 36.5932 79.2475 35.3053C79.3233 34.0173 79.399 32.8809 79.4748 31.896C79.5505 30.9111 79.7021 29.9261 79.8536 28.8655C80.0051 27.8048 80.1566 26.7441 80.3839 25.5319C80.6112 24.3197 80.9143 22.8802 81.2173 21.2135C81.2931 20.8347 81.4446 20.1528 81.5961 19.3194C81.7477 18.486 81.9749 17.5769 82.2022 16.6677C82.4295 15.7586 82.6568 14.8494 82.8841 14.016C83.1114 13.1827 83.3387 12.5765 83.4902 12.1977C84.1721 10.9855 85.0812 10.3794 86.2934 10.3794C87.5813 10.3794 88.4147 10.9855 89.0208 12.2735C89.2481 12.8796 89.3997 13.7887 89.3997 15.0767C89.3997 16.3647 89.3997 17.7284 89.2481 19.3952C89.0966 20.9862 88.8693 22.6529 88.642 24.4712C88.4147 26.2138 88.1117 27.9563 87.8086 29.6231C87.5056 31.2899 87.2026 32.8051 86.9753 34.1688C86.748 35.5326 86.5207 36.5932 86.2934 37.3508C86.2176 37.7297 86.1419 38.0327 86.0661 38.3358C85.9903 38.6388 85.9903 39.0176 86.0661 39.3964C86.3692 39.3964 86.748 39.3207 87.2783 39.0934C87.8087 38.8661 88.339 38.6388 88.9451 38.26C89.5512 37.8812 90.1573 37.5024 90.7634 37.0478C91.3695 36.5932 91.9756 36.0629 92.4301 35.6083C94.3242 33.6385 95.7637 31.5171 96.8244 29.3958C97.8093 27.2745 98.4911 25.0773 98.7942 23.0318C99.0972 20.9104 99.0215 18.9406 98.7184 17.0465C98.3396 15.1525 97.7335 13.4857 96.9001 12.122C95.7637 10.3794 94.4757 9.09148 93.0363 8.25809C91.521 7.4247 90.0058 7.04589 88.4147 7.04589C86.4449 7.04589 84.3993 7.57623 82.3538 8.71267C80.3082 9.8491 78.4899 11.3643 76.9746 13.3342C75.4594 15.304 74.1714 17.5769 73.1865 20.3043C72.2774 22.956 71.8985 25.9107 72.1258 29.0928C72.2016 29.5473 72.2016 30.1534 72.2016 30.911C72.2016 31.6687 72.1258 32.2748 72.0501 32.7293C71.747 33.8658 71.0652 34.3961 69.9287 34.3961C69.3984 34.3961 68.9438 34.2446 68.4892 33.8658C68.0346 33.487 67.5801 32.8809 67.277 32.0475C66.6709 30.3807 66.4437 28.3351 66.5194 25.9107C66.5952 23.4863 67.1255 20.9104 68.0347 18.3345C68.9438 15.7586 70.2318 13.2584 72.0501 10.7583C73.7168 7.95504 75.9897 5.8337 78.6414 4.16692Z" fill="#6B3A00"/>
<path d="M110.007 16.1374C110.159 15.5313 110.386 14.8494 110.613 14.1675C110.84 13.4857 111.143 12.8038 111.447 12.122C111.75 11.4401 112.053 10.7582 112.431 10.1521C112.81 9.54603 113.189 9.0157 113.644 8.63688C114.174 8.10655 114.78 7.87926 115.31 7.80349C115.917 7.72773 116.447 7.8035 117.053 7.95503C117.811 8.18231 118.189 9.01569 118.189 10.4552C118.189 11.8947 117.886 14.016 117.28 16.895C116.75 19.1679 116.295 21.5165 115.841 23.9409C115.386 26.3653 115.007 28.7897 114.629 31.2141C114.25 33.5627 114.022 35.8356 113.795 38.0327C113.568 40.154 113.416 42.0481 113.416 43.7149C113.341 45.3059 113.416 46.6696 113.568 47.5788C113.719 48.5637 114.022 49.0182 114.477 49.0182C115.462 49.0182 116.447 48.4879 117.356 47.503C118.265 46.5181 119.099 45.3816 119.78 44.0937C120.538 42.8057 121.144 41.5935 121.599 40.4571C122.053 39.3207 122.356 38.563 122.432 38.26C122.659 37.7297 122.962 37.2751 123.341 37.0478C123.72 36.7447 124.099 36.669 124.478 36.669C124.932 36.669 125.311 36.8205 125.614 37.1236C125.917 37.4266 126.069 37.9569 125.993 38.6388C125.917 39.4722 125.614 40.7601 125.008 42.5784C124.402 44.321 123.493 46.0635 122.432 47.8818C121.371 49.6243 120.083 51.2154 118.568 52.5033C117.053 53.867 115.462 54.4731 113.719 54.4731C111.598 54.4731 110.007 53.7155 108.871 52.1245C107.734 50.6093 106.977 48.5637 106.598 46.1393C106.219 43.7149 106.143 40.9874 106.295 38.0327C106.446 35.078 106.749 32.1232 107.128 29.32C107.583 26.5168 108.037 23.8651 108.568 21.5165C109.249 19.1679 109.704 17.3496 110.007 16.1374Z" fill="#6B3A00"/>
<path d="M121.674 44.624C121.674 42.0481 122.053 39.548 122.811 37.1236C123.569 34.6992 125.008 32.4263 127.281 30.3807C128.266 29.4716 129.326 28.7897 130.311 28.4109C131.372 27.9563 132.357 27.8048 133.266 27.8048C134.933 27.8048 136.372 28.4109 137.509 29.5473C138.645 30.6838 139.1 32.199 138.948 34.1688C138.873 35.1537 138.494 36.2902 137.888 37.5781C137.282 38.8661 136.448 40.0025 135.539 41.0632C134.63 42.1239 133.569 43.033 132.433 43.7906C131.296 44.5483 130.16 44.9271 129.099 44.9271C128.569 44.9271 128.266 44.9271 128.038 44.8513C127.811 44.7755 127.735 44.9271 127.811 45.2301C127.887 45.6089 127.963 46.0635 128.19 46.5181C128.417 46.9727 128.645 47.4273 129.023 47.8061C129.402 48.1849 129.781 48.5637 130.311 48.791C130.842 49.094 131.372 49.1698 132.054 49.1698C133.039 49.1698 134.024 48.791 134.933 47.9576C135.842 47.1242 136.675 46.1393 137.509 45.0028C138.342 43.8664 139.024 42.73 139.706 41.5178C140.388 40.3056 140.994 39.3207 141.6 38.4873C141.903 38.0327 142.206 37.7297 142.585 37.5024C142.964 37.2751 143.343 37.1993 143.721 37.1993C144.403 37.1993 144.934 37.5024 145.312 38.0327C145.691 38.563 145.767 39.3207 145.388 40.3056C145.312 40.5329 145.161 40.9874 144.782 41.7451C144.403 42.5027 143.949 43.4118 143.343 44.3968C142.736 45.4574 141.979 46.5181 141.145 47.6545C140.312 48.791 139.327 49.8516 138.266 50.8366C137.206 51.8215 136.069 52.5791 134.857 53.2609C133.645 53.867 132.281 54.1701 130.917 54.1701C129.781 54.1701 128.645 53.9428 127.508 53.4125C126.372 52.8821 125.387 52.2003 124.553 51.2911C123.644 50.382 122.962 49.3971 122.432 48.1849C121.902 47.1242 121.674 45.912 121.674 44.624ZM128.645 40.3056C128.72 40.4571 128.948 40.3813 129.326 40.2298C129.705 40.0025 130.084 39.6237 130.614 39.1691C131.145 38.7146 131.599 38.1085 132.054 37.4266C132.508 36.7447 132.887 36.0629 133.19 35.3053C133.266 35.1537 133.266 35.0022 133.342 34.8507C133.418 34.6992 133.342 34.4719 133.266 34.2446C132.736 34.3961 132.205 34.7749 131.675 35.381C131.069 35.9871 130.539 36.669 130.084 37.3508C129.63 38.0327 129.251 38.7146 128.948 39.3207C128.72 39.851 128.569 40.2298 128.645 40.3056Z" fill="#6B3A00"/>
<path d="M142.661 34.0173C142.736 33.3355 142.964 32.4263 143.191 31.2899C143.494 30.1534 143.873 29.0928 144.327 28.0321C144.858 26.9714 145.388 26.0623 146.07 25.3046C146.752 24.547 147.585 24.1682 148.494 24.1682C149.328 24.1682 150.01 24.4713 150.54 25.0016C151.146 25.6077 151.373 26.3653 151.298 27.426C151.298 27.8806 151.222 28.5624 150.995 29.5473C150.767 30.5323 150.54 31.5172 150.237 32.5778C149.934 33.6385 149.631 34.6992 149.328 35.6841C149.025 36.669 148.797 37.4266 148.646 38.0327C149.025 37.957 149.555 37.2751 150.313 36.1387C151.07 34.9265 152.51 33.2597 154.555 30.9868C155.389 30.0019 156.298 29.1685 157.359 28.4109C158.343 27.6533 159.404 27.426 160.616 27.6533C162.132 28.0321 163.116 28.7897 163.571 30.0777C164.026 31.3656 164.101 32.7294 163.874 34.1689C163.647 35.5326 163.344 37.0478 162.965 38.7146C162.51 40.3814 162.132 41.8966 161.829 43.3361C161.45 44.7756 161.222 45.9878 161.071 46.8969C160.919 47.8818 160.919 48.3364 161.147 48.3364C161.45 48.3364 161.829 48.1091 162.359 47.5788C162.889 47.0485 163.42 46.4424 163.95 45.6847C164.556 44.9271 165.162 44.0937 165.768 43.1846C166.374 42.2754 166.98 41.4421 167.511 40.6087C168.041 39.7753 168.496 39.0934 168.874 38.4873C169.253 37.8812 169.556 37.5024 169.632 37.3509C170.087 36.7448 170.693 36.4417 171.375 36.4417C172.056 36.4417 172.587 36.669 173.041 37.1994C173.496 37.7297 173.647 38.3358 173.496 39.1692C173.117 40.0025 172.663 40.9875 172.056 42.1239C171.45 43.2604 170.768 44.321 170.087 45.4575C169.329 46.5939 168.647 47.6546 167.89 48.7152C167.132 49.7759 166.45 50.6093 165.844 51.3669C164.935 52.5034 164.026 53.261 163.041 53.7156C162.056 54.1701 161.222 54.3974 160.313 54.3974C158.722 54.3974 157.359 53.7155 156.298 52.4276C155.616 51.5942 155.161 50.4578 155.01 48.8668C154.858 47.3515 154.783 45.7605 154.783 44.1695C154.783 42.6542 154.934 40.6844 155.237 38.3358C154.025 39.9268 152.964 41.5178 151.979 43.1846C150.995 44.8514 150.161 46.4424 149.479 47.8818C148.797 49.3213 148.191 50.5335 147.812 51.5942C147.358 52.6549 147.131 53.3367 146.979 53.6398C146.297 55.0035 145.237 55.6854 143.721 55.6854C142.964 55.6854 142.358 55.4581 141.903 55.0793C141.448 54.7005 141.07 54.1701 140.767 53.564C140.085 52.0488 139.933 49.7001 140.464 46.5181C140.918 43.4876 141.6 39.3207 142.661 34.0173Z" fill="#6B3A00"/>
<path d="M171.526 29.3958C171.981 28.6382 172.511 28.1079 173.117 27.729C173.723 27.3502 174.329 27.1987 174.935 27.1987C175.769 27.1987 176.526 27.5018 177.208 28.0321C177.89 28.5624 178.269 29.3201 178.345 30.305C178.421 30.9111 178.345 31.7444 178.193 32.8809C177.966 34.0173 177.739 35.2295 177.436 36.5932C177.133 37.957 176.829 39.3965 176.526 40.9875C176.223 42.5027 176.072 44.018 175.996 45.4575C175.92 46.3666 176.072 47.2 176.299 47.9576C176.602 48.7152 176.981 49.094 177.511 49.094C177.89 49.094 178.193 48.9425 178.572 48.5637C179.557 47.6546 180.466 46.5939 181.299 45.3817C182.133 44.1695 182.815 42.9573 183.497 41.8208C184.103 40.6844 184.633 39.6237 185.012 38.7903C185.391 37.8812 185.694 37.4266 185.845 37.2751C186.3 36.7448 186.83 36.5175 187.436 36.5175C187.967 36.5175 188.421 36.7448 188.8 37.1236C189.179 37.5024 189.33 38.0327 189.255 38.7146C189.179 39.548 189.027 40.6086 188.648 41.8208C188.27 43.033 187.891 44.2452 187.436 45.3817C187.057 46.3666 186.451 47.4273 185.769 48.5637C185.088 49.7001 184.254 50.6851 183.345 51.5942C182.436 52.5034 181.451 53.261 180.39 53.8671C179.33 54.4732 178.193 54.7762 176.981 54.7762C175.011 54.7762 173.269 53.9428 171.602 52.2761C170.011 50.6093 168.95 48.1091 168.571 44.7756C168.496 44.3968 168.571 43.6391 168.571 42.3512C168.647 41.0632 168.799 39.6995 168.95 38.1085C169.177 36.5932 169.481 35.0022 169.859 33.4112C170.39 31.7445 170.92 30.4565 171.526 29.3958ZM178.042 10.4552C178.724 9.92487 179.405 9.62183 180.163 9.62183C180.996 9.62183 181.754 10.0006 182.436 10.6825C183.118 11.4401 183.269 12.3493 183.042 13.4857C182.89 14.1676 182.436 15.1525 181.603 16.4404C180.769 17.7284 180.087 19.3194 179.481 21.2135C179.254 21.8953 178.875 22.4257 178.421 22.8045C177.966 23.1833 177.511 23.3348 176.981 23.3348C176.375 23.3348 175.845 23.1075 175.314 22.7287C174.784 22.2742 174.481 21.7438 174.405 20.9862C174.405 20.8347 174.557 20.2286 174.784 19.2437C175.011 18.2587 175.314 17.1223 175.693 15.9101C176.072 14.6979 176.451 13.5615 176.829 12.5008C177.284 11.4401 177.663 10.7583 178.042 10.4552Z" fill="#6B3A00"/>
<path d="M178.496 16.9708C179.254 16.6677 180.163 16.3647 181.224 16.1374C182.284 15.8343 183.421 15.607 184.557 15.4555C185.694 15.2282 186.83 15.0767 187.891 14.9252C188.951 14.7737 189.861 14.6221 190.618 14.6221C190.997 14.6221 191.3 14.5464 191.452 14.3191C191.603 14.0918 191.755 13.7887 191.982 13.3342C192.209 12.8796 192.437 12.2735 192.74 11.4401C193.043 10.6067 193.573 9.62181 194.255 8.40961C194.785 7.57623 195.316 6.89437 195.922 6.36403C196.528 5.75793 197.285 5.6064 198.119 5.75793C198.801 5.83369 199.407 6.28827 199.861 6.97013C200.316 7.72776 200.316 8.63691 199.937 9.84911C199.558 10.9855 199.331 11.8189 199.104 12.3493C198.876 12.9554 198.725 13.3342 198.725 13.5615C198.649 13.7887 198.725 13.8645 198.801 13.8645C198.952 13.8645 199.104 13.8645 199.407 13.8645C200.24 13.7887 201.149 13.7887 202.134 13.713C203.119 13.6372 204.028 13.6372 204.937 13.6372C206.225 13.6372 207.362 13.713 208.422 13.8645C209.483 14.016 210.241 14.3948 210.847 14.9252C211.301 15.3798 211.604 15.8343 211.68 16.3647C211.756 16.895 211.756 17.3496 211.529 17.8042C211.301 18.2587 211.074 18.6375 210.695 18.9406C210.316 19.2436 209.938 19.3952 209.483 19.3952C208.953 19.3952 208.498 19.1679 208.044 18.7133C207.665 18.3345 207.286 18.1072 206.831 18.1072C205.316 18.0314 203.801 18.1072 202.286 18.183C200.77 18.2587 199.255 18.4103 197.74 18.5618C197.21 18.6375 196.907 18.8648 196.755 19.3952C196.452 20.5316 196.073 22.0468 195.543 24.0924C195.012 26.138 194.558 28.3351 194.028 30.6838C193.497 33.0324 192.967 35.4568 192.512 37.957C192.058 40.4571 191.603 42.6542 191.3 44.6998C190.997 46.7454 190.77 48.4122 190.77 49.6244C190.77 50.9123 190.921 51.5184 191.224 51.5184C191.452 51.5184 191.755 51.2154 192.209 50.5335C192.664 49.8516 193.194 49.094 193.8 48.1091C194.406 47.1242 195.012 46.0635 195.694 44.8513C196.376 43.6391 197.058 42.5785 197.664 41.442C198.27 40.3813 198.876 39.3965 199.331 38.6388C199.861 37.8054 200.24 37.2751 200.467 37.0478C200.846 36.669 201.225 36.5175 201.755 36.5175C202.286 36.5175 202.74 36.7448 203.119 37.1236C203.498 37.5781 203.649 38.0327 203.498 38.6388C203.422 38.9419 203.195 39.4722 202.816 40.3056C202.361 41.139 201.907 42.0481 201.301 43.1846C200.695 44.2452 200.013 45.3817 199.331 46.6696C198.573 47.8818 197.891 49.0183 197.285 50.1547C196.603 51.2154 196.073 52.2003 195.543 53.0337C195.012 53.8671 194.709 54.3974 194.482 54.6247C193.876 55.4581 193.194 56.1399 192.437 56.5945C191.679 57.0491 190.921 57.2764 190.239 57.2764C189.33 57.2764 188.497 56.9733 187.664 56.3672C186.83 55.7611 186.224 54.852 185.769 53.6398C184.936 51.67 184.557 49.1698 184.633 46.2908C184.633 43.4119 184.936 40.3813 185.391 37.2751C185.845 34.1688 186.451 31.1383 187.209 28.1836C187.967 25.2289 188.573 22.7287 189.179 20.6074C189.255 20.3043 189.33 20.0013 189.33 19.774C189.027 19.774 188.497 19.774 187.739 19.8497C186.982 19.9255 186.148 20.0013 185.163 20.1528C184.254 20.3043 183.269 20.4558 182.209 20.6074C181.148 20.7589 180.239 20.9862 179.481 21.1377C179.027 21.2892 178.572 21.365 178.042 21.365C177.057 21.2135 176.451 20.7589 176.148 20.0013C175.769 19.1679 175.845 18.486 176.299 17.8799C176.981 17.8042 177.663 17.3496 178.496 16.9708Z" fill="#6B3A00"/>
<path d="M199.407 41.5936C199.482 40.7602 199.71 39.6237 200.089 38.1085C200.467 36.5932 200.922 35.078 201.528 33.5627C202.134 32.0475 202.892 30.7595 203.725 29.6231C204.559 28.4867 205.543 27.9563 206.68 27.9563C207.513 27.9563 208.195 28.2594 208.725 28.8655C209.256 29.4716 209.483 30.2292 209.332 31.1384C209.256 31.4414 209.029 32.1233 208.65 33.1082C208.195 34.1688 207.741 35.381 207.286 36.9721C206.756 38.4873 206.301 40.2298 205.922 42.0481C205.468 43.9422 205.24 45.8362 205.24 47.8818C205.24 47.9576 205.24 48.1091 205.316 48.1849C205.771 47.9576 206.453 47.2757 207.286 46.1393C208.119 45.0029 209.029 43.6391 210.013 42.1997C210.998 40.6844 211.983 39.1692 212.892 37.6539C213.877 36.1387 214.635 34.775 215.317 33.7143C215.544 33.3355 215.771 32.8809 215.999 32.5021C216.226 32.0475 216.377 31.5929 216.453 31.1384C216.681 30.3807 217.059 29.8504 217.59 29.4716C218.12 29.0928 218.65 28.9412 219.181 28.9412C219.863 28.9412 220.544 29.2443 221.075 29.7746C221.605 30.305 221.908 31.1384 221.908 32.1233C221.908 32.4263 221.832 33.0324 221.681 33.8658C221.529 34.7749 221.378 35.7599 221.226 36.9721C221.075 38.1842 220.847 39.3964 220.696 40.7602C220.544 42.1239 220.393 43.3361 220.317 44.5483C220.241 45.7605 220.166 46.8212 220.241 47.8061C220.317 48.791 220.469 49.4729 220.696 49.9274C220.772 49.8517 221.075 49.3971 221.605 48.4879C222.135 47.5788 222.666 46.5181 223.272 45.2302C223.878 43.9422 224.484 42.73 225.09 41.442C225.696 40.1541 226.151 39.1692 226.378 38.4115C226.53 37.8812 226.757 37.5782 227.06 37.3509C227.363 37.1236 227.742 37.0478 228.045 37.0478C228.424 37.0478 228.802 37.1993 229.106 37.4266C229.409 37.6539 229.636 38.1085 229.712 38.6388C229.787 39.1692 229.636 40.1541 229.181 41.442C228.727 42.8058 228.196 44.1695 227.59 45.609C226.984 47.0484 226.302 48.4122 225.696 49.7001C225.014 50.9881 224.56 51.8215 224.181 52.2761C222.969 53.9428 221.605 54.7762 219.938 54.7762C218.499 54.7762 217.287 53.9428 216.15 52.3518C215.014 50.7608 214.483 48.1849 214.483 44.6998C214.483 44.1695 214.483 43.8664 214.483 43.8664C214.483 43.8664 214.408 43.7907 214.332 43.7149C214.18 43.7907 213.953 44.0937 213.574 44.6998C213.195 45.3059 212.817 46.0635 212.286 46.8969C211.756 47.8061 211.15 48.7152 210.468 49.7001C209.786 50.6851 208.953 51.5942 208.119 52.4276C206.68 53.8671 205.24 54.5489 203.725 54.5489C202.892 54.5489 202.134 54.3217 201.452 53.7913C200.77 53.261 200.164 52.5033 199.786 51.4427C199.331 50.382 199.104 49.0941 199.028 47.4273C198.876 45.609 199.028 43.7149 199.407 41.5936Z" fill="#6B3A00"/>
<path d="M230.015 30.4565C231 29.6231 231.909 29.017 232.818 28.6382C233.727 28.2593 234.636 28.1078 235.47 28.1078C236.303 28.1078 236.909 28.1836 237.364 28.4109C237.591 28.4866 237.894 28.6382 238.121 28.7139C238.424 28.8655 238.652 28.9412 238.955 29.0927C239.485 27.5775 239.788 26.4411 239.94 25.6077C240.091 24.7743 240.167 24.0167 240.243 23.259C240.318 22.5014 240.394 21.668 240.546 20.6831C240.697 19.6982 240.924 18.3345 241.379 16.5162C241.531 15.9101 241.682 15.2282 241.909 14.5464C242.137 13.8645 242.364 13.1826 242.591 12.5008C242.819 11.8189 243.122 11.2128 243.5 10.6067C243.879 10.0006 244.258 9.47028 244.713 9.09147C245.243 8.48537 246.001 8.18231 246.834 8.18231C247.289 8.18231 247.743 8.25808 248.198 8.4096C248.576 8.48536 248.88 8.71265 249.107 9.0157C249.334 9.31875 249.41 9.69756 249.486 10.1521C249.561 10.6067 249.561 10.9855 249.561 11.4401C249.561 11.8947 249.486 12.2735 249.41 12.6523C248.804 16.0616 248.349 19.4709 248.122 22.8802C247.819 26.2895 247.44 29.6988 246.91 33.1839C246.758 34.1688 246.531 35.6841 246.304 37.5781C246.001 39.4722 245.849 41.442 245.773 43.3361C245.698 45.2301 245.698 46.9727 245.773 48.3364C245.849 49.7759 246.228 50.4577 246.834 50.4577C247.44 50.4577 248.046 49.9274 248.728 48.791C249.41 47.6545 250.016 46.3666 250.546 44.9271C251.077 43.4876 251.607 42.1239 251.986 40.8359C252.365 39.548 252.668 38.7146 252.743 38.4115C252.971 37.8812 253.198 37.4266 253.577 37.1993C253.956 36.8963 254.334 36.8205 254.713 36.8205C255.244 36.8205 255.622 36.972 256.001 37.3508C256.38 37.7297 256.532 38.26 256.456 38.9419C256.456 39.4722 256.304 40.3056 256.077 41.3663C255.85 42.4269 255.471 43.5634 255.092 44.7756C254.637 45.9878 254.183 47.2757 253.577 48.5637C252.971 49.8517 252.365 51.0638 251.683 52.1245C251.001 53.1852 250.243 54.0186 249.486 54.7004C248.728 55.3823 247.895 55.6854 247.137 55.6854C245.167 55.6854 243.652 55.155 242.667 54.1701C241.682 53.1094 241 51.973 240.621 50.685C240.243 49.3971 240.015 48.1849 240.015 47.0484C240.015 45.912 239.94 45.2301 239.94 45.0028C239.712 45.0786 239.485 45.609 239.106 46.6696C238.727 47.7303 238.197 48.8667 237.515 50.0789C236.833 51.2911 236 52.3518 234.939 53.3367C233.879 54.2459 232.666 54.6247 231.227 54.4731C230.394 54.3974 229.712 54.0943 229.181 53.6398C228.575 53.1852 228.121 52.6549 227.742 51.973C227.363 51.2911 226.984 50.5335 226.757 49.7001C226.53 48.8667 226.302 48.0333 226.151 47.2757C225.848 45.8362 225.696 44.321 225.696 42.73C225.696 41.139 225.848 39.6237 226.151 38.0327C226.454 36.5174 226.984 35.0022 227.59 33.6385C228.121 32.5778 228.954 31.3656 230.015 30.4565ZM232.288 48.1849C232.666 47.8061 233.121 47.0484 233.576 45.912C234.03 44.7756 234.485 43.6391 234.939 42.3512C235.394 41.0632 235.773 39.851 236.151 38.7903C236.53 37.6539 236.758 36.972 236.909 36.5174C237.061 36.1386 237.061 35.6841 236.833 35.3053C236.606 34.8507 236.379 34.6234 236.151 34.5476C235.848 34.3961 235.621 34.3961 235.394 34.5476C235.167 34.6992 234.939 34.8507 234.788 35.0022C234.03 35.6841 233.424 36.669 233.045 37.957C232.591 39.3207 232.288 40.6086 232.136 42.0481C231.985 43.4118 231.909 44.6998 231.985 45.912C231.985 46.9727 232.06 47.8061 232.288 48.1849Z" fill="#6B3A00"/>
<path d="M252.137 44.624C252.137 42.0481 252.516 39.548 253.274 37.1236C254.031 34.6992 255.471 32.4263 257.744 30.3807C258.729 29.4716 259.789 28.7897 260.774 28.4109C261.835 27.9563 262.82 27.8048 263.729 27.8048C265.396 27.8048 266.835 28.4109 267.972 29.5473C269.108 30.6838 269.563 32.199 269.411 34.1688C269.335 35.1537 268.957 36.2902 268.35 37.5781C267.744 38.8661 266.911 40.0025 266.002 41.0632C265.093 42.1239 264.032 43.033 262.896 43.7906C261.759 44.5483 260.623 44.9271 259.562 44.9271C259.032 44.9271 258.729 44.9271 258.501 44.8513C258.274 44.7755 258.198 44.9271 258.274 45.2301C258.35 45.6089 258.426 46.0635 258.653 46.5181C258.88 46.9727 259.107 47.4273 259.486 47.8061C259.865 48.1849 260.244 48.5637 260.774 48.791C261.305 49.094 261.835 49.1698 262.517 49.1698C263.502 49.1698 264.487 48.791 265.396 47.9576C266.305 47.1242 267.138 46.1393 267.972 45.0028C268.805 43.8664 269.487 42.73 270.169 41.5178C270.851 40.3056 271.457 39.3207 272.063 38.4873C272.366 38.0327 272.669 37.7297 273.048 37.5024C273.427 37.2751 273.805 37.1993 274.184 37.1993C274.866 37.1993 275.396 37.5024 275.775 38.0327C276.154 38.563 276.23 39.3207 275.851 40.3056C275.775 40.5329 275.624 40.9874 275.245 41.7451C274.866 42.5027 274.411 43.4118 273.805 44.3968C273.199 45.4574 272.442 46.5181 271.608 47.6545C270.775 48.791 269.79 49.8516 268.729 50.8366C267.669 51.8215 266.532 52.5791 265.32 53.2609C264.108 53.867 262.744 54.1701 261.38 54.1701C260.244 54.1701 259.107 53.9428 257.971 53.4125C256.835 52.8821 255.85 52.2003 255.016 51.2911C254.107 50.382 253.425 49.3971 252.895 48.1849C252.44 47.1242 252.137 45.912 252.137 44.624ZM259.107 40.3056C259.183 40.4571 259.411 40.3813 259.789 40.2298C260.168 40.0025 260.547 39.6237 261.077 39.1691C261.608 38.7146 262.062 38.1085 262.517 37.4266C262.971 36.7447 263.35 36.0629 263.653 35.3053C263.729 35.1537 263.729 35.0022 263.805 34.8507C263.88 34.6992 263.805 34.4719 263.729 34.2446C263.199 34.3961 262.668 34.7749 262.138 35.381C261.532 35.9871 261.002 36.669 260.547 37.3508C260.092 38.0327 259.714 38.7146 259.411 39.3207C259.183 39.851 259.032 40.2298 259.107 40.3056Z" fill="#6B3A00"/>
<path fill-rule="evenodd" clip-rule="evenodd" d="M34.0931 31.896C34.2446 30.3807 34.4719 29.9262 34.4719 27.8806C40.7602 27.3502 43.7907 25.2289 49.4729 25.6835C51.3669 33.487 50.0032 38.8661 50.3062 41.5936C50.4577 43.2603 50.7608 45.9878 49.4729 46.7454C49.1698 46.8969 49.9274 47.6546 48.1849 46.2908C47.4273 45.6847 46.4423 44.6241 45.0029 44.6241C44.0937 44.6241 34.6992 46.5181 34.0931 46.8212V41.3663L41.8966 40.9117C44.1695 40.6844 46.2908 40.6844 46.8212 39.548C46.9727 39.2449 47.8061 40.0783 46.5939 38.7146C45.2301 37.1994 43.2603 37.5782 41.5935 37.7297L34.0173 38.7904V34.0931C35.7598 34.1689 35.3053 34.4719 36.9721 34.4719C39.851 34.3961 44.0937 33.6385 46.7454 33.0324C46.7454 28.6382 41.139 31.896 34.0931 31.896ZM39.3207 24.6985C39.6237 24.244 40.3814 23.2591 40.7602 22.8045C41.6693 21.7438 41.9724 22.0469 42.73 21.0619C42.6542 18.1072 40.2298 18.2587 43.0331 17.8042C44.6998 17.5769 46.9727 17.3496 48.4122 17.1981C54.1701 16.5162 65.5345 17.8799 63.4131 14.5464C62.9586 13.8645 60.1553 12.6523 59.1704 12.3493C57.2764 11.8189 51.4427 13.3342 49.0183 13.7888L25.6835 17.7284C24.244 17.8799 23.7894 17.4254 23.7894 18.4103C23.7894 19.3952 26.4411 20.5316 27.5775 20.5316C30.9868 20.3801 34.3204 18.6376 37.8054 18.5618C37.5781 20.9862 35.7598 23.1833 35.5326 25.4562C34.2446 25.4562 34.0173 25.7592 33.3354 25.6835C32.6536 25.6077 32.6536 25.3046 31.5929 24.8501C30.0019 24.1682 28.7139 24.244 29.32 26.2138C29.5473 26.8199 29.7746 27.1987 30.0777 28.1079C32.5778 36.8963 26.5926 50.4578 32.8809 51.8973C33.4112 50.9124 33.487 49.8517 34.3961 49.3213C35.6841 48.5637 45.0786 48.2607 46.8212 48.2607C48.0334 50.0032 50.5335 54.1701 52.0488 55.155C58.9432 53.4125 53.564 34.6992 54.7762 29.0928C54.852 28.714 55.9127 26.2896 56.2157 25.7592C54.2459 24.4713 52.1245 21.5923 48.4122 22.1984C46.9727 22.4257 42.6542 24.6228 39.3207 24.6985Z" fill="#6B3A00"/>
<path fill-rule="evenodd" clip-rule="evenodd" d="M2.19712 30.4565C5.07609 34.6234 10.834 28.7897 12.122 31.4414C12.9554 33.1839 9.31878 36.1387 9.31878 37.3509C9.31878 39.851 12.122 41.5936 13.3342 46.2151C13.8645 48.1849 13.4857 47.8061 13.4857 49.7002C7.42472 49.7002 4.62151 50.7608 0 50.7608C0.0757624 53.4883 3.78813 55.0793 4.8488 55.0793C9.84912 55.0793 8.18235 48.9425 28.714 56.9733L41.8966 62.3525C51.8973 66.3679 51.5184 66.974 62.504 62.5798C63.9435 61.9737 65.2314 61.3676 66.8225 60.6099C67.6558 60.2311 67.9589 60.0038 68.7923 59.625C70.0802 58.9432 70.0802 59.3977 70.459 57.9583C64.1708 57.9583 53.4125 58.2613 47.3515 57.4279C37.2751 56.0642 37.4266 56.1399 27.729 53.564C23.8652 52.5791 20.077 50.3063 15.3798 50.3063C16.8193 48.1849 17.2738 49.5486 17.2738 45.609C17.2738 40.6087 8.63692 39.7753 18.1072 31.896C22.5014 28.2594 13.713 25.9865 13.1069 25.9865C11.5159 25.9865 8.63692 28.1836 5.37914 29.3958C4.16694 30.0019 3.10627 30.0777 2.19712 30.4565Z" fill="#6B3A00"/>
<path fill-rule="evenodd" clip-rule="evenodd" d="M42.3512 12.3493C44.6998 12.1977 49.7759 7.50047 51.8972 5.98523C52.8822 5.30336 54.7762 4.54574 54.7762 3.25777C54.7762 1.74253 50.8366 0 49.1698 0C46.8212 0 49.7001 1.06067 45.9878 6.36404L43.0331 10.3794C42.1997 11.5159 42.3512 10.3794 42.3512 12.3493Z" fill="#6B3A00"/>
<path fill-rule="evenodd" clip-rule="evenodd" d="M17.1981 17.0465C18.0315 17.0465 17.6527 16.895 18.7133 16.6677C19.5467 13.2584 19.3952 11.2128 15.6071 9.54605C13.6372 8.6369 11.7432 7.95505 8.93997 7.95505C8.63692 11.3644 9.47031 10.4552 12.0462 12.9554C13.1069 13.9403 15.6828 17.0465 17.1981 17.0465Z" fill="#6B3A00"/>
<path fill-rule="evenodd" clip-rule="evenodd" d="M36.669 11.9705C40.0783 11.9705 37.6539 4.6973 30.305 4.6973C30.305 6.21254 30.4565 6.21254 31.1384 7.12169C32.199 8.48541 35.078 11.9705 36.669 11.9705Z" fill="#6B3A00"/>
</svg>
